# xmcd CD database file generated by Grip 3.3.1
# 
# Track frame offsets:
#       182
#       20455
#       42317
# 
# Disc length: 846 seconds
# 
# Revision: 6
# Processed by: cddbd v1.5.2PL0 Copyright (c) Steve Scherf et al.
# Submitted via: Grip 3.3.1
# 
DISCID=1c034c03
DTITLE=Backstreet Boys - I'll never break your Heart (Single)
DYEAR=1995
DGENRE=Pop
TTITLE0=I'll never break your Heart (Radio edit)
TTITLE1=I'll never break your Heart (LP version)
TTITLE2=Roll with it
EXTD=
EXTT0=
EXTT1=
EXTT2=
PLAYORDER=
